<svg width="1200" height="800" viewBox="0 0 1200 800" fill="none" xmlns="http://www.w3.org/2000/svg">
  <rect width="1200" height="800" rx="48" fill="url(#bg)"/>
  <rect x="120" y="104" width="960" height="592" rx="38" fill="rgba(255,255,255,0.88)"/>
  <text x="166" y="190" fill="#523B60" font-family="Arial, sans-serif" font-size="44" font-weight="700">Age Calculator</text>
  <text x="166" y="234" fill="#82678E" font-family="Arial, sans-serif" font-size="24">Pick a birth date and calculate instantly</text>
  <rect x="166" y="292" width="420" height="80" rx="20" fill="#F4E9FA"/>
  <text x="198" y="342" fill="#715283" font-family="Arial, sans-serif" font-size="28">12 / 08 / 2005</text>
  <rect x="612" y="292" width="188" height="80" rx="20" fill="#7B4E91"/>
  <text x="652" y="342" fill="white" font-family="Arial, sans-serif" font-size="28" font-weight="700">Calculate</text>
  <rect x="166" y="426" width="360" height="194" rx="28" fill="#FFF4D8"/>
  <text x="206" y="500" fill="#9B6B1A" font-family="Arial, sans-serif" font-size="28">Current Age</text>
  <text x="206" y="584" fill="#3D2A12" font-family="Arial, sans-serif" font-size="88" font-weight="700">20</text>
  <text x="400" y="584" fill="#9B6B1A" font-family="Arial, sans-serif" font-size="34">years</text>
  <g opacity="0.95">
    <rect x="654" y="418" width="282" height="208" rx="30" fill="#F7ECFF"/>
    <rect x="702" y="458" width="184" height="18" rx="9" fill="#D8B9E9"/>
    <rect x="702" y="500" width="110" height="18" rx="9" fill="#D8B9E9"/>
    <rect x="702" y="542" width="152" height="18" rx="9" fill="#D8B9E9"/>
    <circle cx="860" cy="554" r="42" fill="#B67CCF"/>
    <text x="843" y="565" fill="white" font-family="Arial, sans-serif" font-size="32" font-weight="700">+</text>
  </g>
  <defs>
    <linearGradient id="bg" x1="143" y1="71" x2="1051" y2="747" gradientUnits="userSpaceOnUse">
      <stop stop-color="#FFD5E6"/>
      <stop offset="1" stop-color="#B6D6FF"/>
    </linearGradient>
  </defs>
</svg>
