<svg width="1200" height="800" viewBox="0 0 1200 800" fill="none" xmlns="http://www.w3.org/2000/svg">
  <rect width="1200" height="800" rx="48" fill="url(#bg)"/>
  <circle cx="923" cy="183" r="96" fill="#FFE17A"/>
  <circle cx="986" cy="146" r="22" fill="#FFF2B0"/>
  <rect x="86" y="102" width="1028" height="596" rx="34" fill="rgba(255,255,255,0.14)" stroke="rgba(255,255,255,0.25)" stroke-width="3"/>
  <rect x="130" y="150" width="370" height="164" rx="28" fill="rgba(255,255,255,0.88)"/>
  <text x="168" y="224" fill="#20304A" font-family="Arial, sans-serif" font-size="42" font-weight="700">Harare</text>
  <text x="168" y="274" fill="#4A6286" font-family="Arial, sans-serif" font-size="24">24° • Partly cloudy</text>
  <text x="168" y="414" fill="#F7FBFF" font-family="Arial, sans-serif" font-size="108" font-weight="700">Weather</text>
  <text x="168" y="472" fill="#D5E7FF" font-family="Arial, sans-serif" font-size="30">Responsive forecast dashboard</text>
  <g>
    <circle cx="776" cy="281" r="54" fill="#F8FCFF"/>
    <circle cx="724" cy="300" r="42" fill="#F8FCFF"/>
    <circle cx="828" cy="303" r="38" fill="#F8FCFF"/>
    <rect x="702" y="302" width="154" height="52" rx="26" fill="#F8FCFF"/>
  </g>
  <g fill="#D8F0FF">
    <rect x="164" y="540" width="180" height="92" rx="24"/>
    <rect x="366" y="540" width="180" height="92" rx="24" opacity="0.88"/>
    <rect x="568" y="540" width="180" height="92" rx="24" opacity="0.76"/>
    <rect x="770" y="540" width="180" height="92" rx="24" opacity="0.64"/>
  </g>
  <text x="204" y="595" fill="#24486A" font-family="Arial, sans-serif" font-size="28" font-weight="700">Mon</text>
  <text x="406" y="595" fill="#24486A" font-family="Arial, sans-serif" font-size="28" font-weight="700">Tue</text>
  <text x="608" y="595" fill="#24486A" font-family="Arial, sans-serif" font-size="28" font-weight="700">Wed</text>
  <text x="810" y="595" fill="#24486A" font-family="Arial, sans-serif" font-size="28" font-weight="700">Thu</text>
  <defs>
    <linearGradient id="bg" x1="87" y1="67" x2="1076" y2="746" gradientUnits="userSpaceOnUse">
      <stop stop-color="#4DB7FF"/>
      <stop offset="1" stop-color="#1D4177"/>
    </linearGradient>
  </defs>
</svg>
